<svg xmlns="http://www.w3.org/2000/svg" viewBox="0 0 501.08 500.63"><defs>
</defs><title>Helmet</title><g id="Layer_2" data-name="Layer 2"><g id="Layer_1-2" data-name="Layer 1"><g id="_5LyDQo.tif" data-name="5LyDQo.tif"><path class="cls-1" d="M500.52,313.17c0-16.29-11.78-28.15-28.11-28.16-26.21,0-52.42-.1-78.64.08-4.09,0-5.5-.86-5.43-5.25.3-15.43-.11-30.88.2-46.32.2-9.74-.26-19.06-8.14-26.82,2.41-.71,4.06-1.31,5.76-1.66,17.55-3.6,35.09-7.28,52.68-10.7,7.92-1.55,10.68-4.7,9.65-11.91-3.56-25.29-10.87-49.43-23.68-71.55C385.06,42.22,325.24,5.28,246.16.87c-39-2.18-76.45,6.46-111.57,23.45C63.19,58.88,17,113.4,3.49,193c-3.91,23-4.25,46.19.9,69a172.11,172.11,0,0,0,32.18,68c3.35,4.33,7,6.68,12.37,7.27,22,2.4,42.53,9.68,61.88,20.42,28.23,15.64,56.45,31.33,84.85,46.67,22.4,12.12,45.47,12.94,68.86,2.58a14.72,14.72,0,0,1,5.6-1.46c21-.1,42,0,63-.13,3.25,0,3.87,1.22,3.78,4.09-.16,6.47,0,12.93,0,19.4-.09,11.87,5,20.6,15.53,26.23C376.27,468,399.9,481.22,424,493.49A60.13,60.13,0,0,0,447.58,500c28.26,1.38,52.82-23,52.9-51.67C500.6,403.29,500.5,358.24,500.52,313.17ZM420.73,139.7c3.13,11.9,6.3,23.77,9.24,35.71.23.9-1,3-1.88,3.23-15.68,3.31-31.39,6.4-48,9.73l38.77-48.82C419.47,139.6,420.09,139.66,420.73,139.7ZM115.43,340.91A190.45,190.45,0,0,0,54,320.62c-1.5-.24-3.42-.69-4.25-1.75a147.46,147.46,0,0,1-25.59-48.35c9.85,2.13,18.88,4.06,27.91,6.05,12.41,2.74,24.77,5.71,37.23,8.24,11.87,2.41,18.84,9.24,21.47,21.1,2.66,12,5.88,23.93,9.08,36.76A44.9,44.9,0,0,1,115.43,340.91Zm94.41,51.42c-22.54-11.83-44.8-24.19-67.06-36.54-1.57-.86-2.71-3.23-3.2-5.13-4.37-16.83-8.31-33.75-12.82-50.54-4.43-16.44-15.18-27.23-31.65-31.25-23.15-5.65-46.49-10.58-69.8-15.54-4.49-1-6.15-2.84-6.45-7.39-5.82-86.82,29-152.62,103.33-197A217.88,217.88,0,0,1,247.36,18c71.3,3.79,125.22,37.13,161.49,98.81,2,3.41,1.93,5.71-.67,8.93q-27.72,34.37-54.95,69.12a9.55,9.55,0,0,1-8.55,4.08c-17.77-.21-35.54-.2-53.31-.08-18.45.12-33.37,7.5-44.3,22.43Q222.43,254.9,198,288.71a52.81,52.81,0,0,0-.68,60.61q12.24,17.71,25.1,35c3.36,4.51,7.56,8.41,11.35,12.56A42.45,42.45,0,0,1,209.84,392.33Zm273.57,55.11c-.06,27.79-26.87,44.19-51.33,31.24-24.09-12.75-48-25.85-72-38.66-4.31-2.29-6.26-5.28-6.13-10.25.26-10.23.11-20.46.07-30.69,0-7.69-3-10.63-10.84-10.64-25.85,0-51.7-.16-77.53.05-13.12.12-23.19-5-30.65-15.66-7.71-11-15.66-21.9-23.41-32.9-9.66-13.67-9.72-27.25.08-40.87,16.46-22.87,33.12-45.59,49.64-68.4,7.28-10.06,17-14.88,29.45-14.8,23.16.16,46.31,0,69.46,0,9.2,0,11.15,1.85,11.17,10.86,0,21.36,0,42.72,0,64.08,0,8.41,2.91,11.24,11.35,11.24h89.92c8.75,0,10.78,2,10.78,10.75q0,34.19,0,68.38C483.42,403.29,483.47,425.37,483.41,447.44Z"/><path class="cls-1" d="M408.85,116.77c-36.27-61.68-90.19-95-161.49-98.81A217.88,217.88,0,0,0,122.19,48.9C47.81,93.32,13,159.12,18.86,245.94c.3,4.55,2,6.44,6.45,7.39,23.31,5,46.65,9.89,69.8,15.54,16.47,4,27.22,14.81,31.65,31.25,4.51,16.79,8.45,33.71,12.82,50.54.49,1.9,1.63,4.27,3.2,5.13,22.26,12.35,44.52,24.71,67.06,36.54a42.45,42.45,0,0,0,23.91,4.54c-3.79-4.15-8-8.05-11.35-12.56q-12.87-17.26-25.1-35a52.81,52.81,0,0,1,.68-60.61q24.44-33.82,49.09-67.46c10.93-14.93,25.85-22.31,44.3-22.43,17.77-.12,35.54-.13,53.31.08a9.55,9.55,0,0,0,8.55-4.08q27.3-34.71,54.95-69.12C410.78,122.48,410.84,120.18,408.85,116.77ZM69.55,219.42c-.08,6.31-3.43,10.3-8.5,10.31-5.3,0-8.62-4.14-8.59-10.74,0-1.08,0-2.16,0-3.77,2.12-45.37,19.18-84.59,52.39-116.59,4.85-4.67,10-5,13.66-1.11s3,8.86-2,13.62C85.5,140.6,70.06,176.76,69.55,219.42ZM211.61,215c-8.51,11.34-17,22.71-25.66,33.91-10.11,13.05-27.49,13.45-38,.87-10-11.95-19.86-24.09-29.77-36.15-5.25-6.38-6.79-13.65-3.28-21.09,3.63-7.69,10.62-11,19-10.86,10.41.22,20.81.91,31.2,1.38v0c10.76.51,21.51,1,32.26,1.55,7.58.4,13.61,3.81,16.86,10.66S216.17,208.87,211.61,215ZM234.84,64.23c-16.33.65-32.58,2-48.17,7.23-10,3.32-19.73,7.41-29.47,11.44-6.48,2.7-11,1.9-13.39-3s-.29-9.34,5.86-12.34a198.15,198.15,0,0,1,76.89-20.08c2.7,0,5.39-.13,8.06,0,4.93.28,8.25,3.52,8.43,8C243.23,60.32,240.08,64,234.84,64.23Z"/><path class="cls-1" d="M214.12,195.2c-3.25-6.85-9.28-10.26-16.86-10.66-10.75-.57-21.5-1-32.26-1.55v0c-10.39-.47-20.79-1.16-31.2-1.38-8.33-.17-15.32,3.17-19,10.86-3.51,7.44-2,14.71,3.28,21.09,9.91,12.06,19.74,24.2,29.77,36.15,10.56,12.58,27.94,12.18,38-.87,8.68-11.2,17.15-22.57,25.66-33.91C216.17,208.87,217.39,202.06,214.12,195.2Zm-16.89,10.56c-8.42,10.94-16.6,22.06-25,33-3.47,4.5-7.45,4.55-11.16.12-9.88-11.83-19.63-23.78-29.38-35.72a17,17,0,0,1-1.6-3.22c1.27-.42,2.54-1.24,3.79-1.2,9.84.34,19.7.83,29.55,1.27v0c10.57.49,21.14,1,31.7,1.44C198.66,201.58,199.76,202.46,197.23,205.76Z"/><path class="cls-1" d="M116.49,111.14c-31,29.46-46.43,65.62-46.94,108.28-.08,6.31-3.43,10.3-8.5,10.31-5.3,0-8.62-4.14-8.59-10.74,0-1.08,0-2.16,0-3.77,2.12-45.37,19.18-84.59,52.39-116.59,4.85-4.67,10-5,13.66-1.11S121.5,106.38,116.49,111.14Z"/><path class="cls-1" d="M243.05,55.51c.18,4.81-3,8.52-8.21,8.72-16.33.65-32.58,2-48.17,7.23-10,3.32-19.73,7.41-29.47,11.44-6.48,2.7-11,1.9-13.39-3s-.29-9.34,5.86-12.34a198.15,198.15,0,0,1,76.89-20.08c2.7,0,5.39-.13,8.06,0C239.55,47.76,242.87,51,243.05,55.51Z"/><path class="cls-1" d="M354,329.43c0-6.65-3.24-9.87-9.93-9.95-8.43-.09-16.86,0-25.29,0-13.12,0-12.95,0-14.54-13.26-.42-3.54.48-4.22,3.77-4.18,11.84.16,23.68.1,35.52.05,7.4,0,10.44-3.08,10.47-10.48q.06-23.68,0-47.37c0-8-3-10.94-11.1-10.95-17.23,0-34.45.06-51.68,0a18.79,18.79,0,0,0-16.11,8.09q-24.42,33.5-48.73,67c-5.2,7.19-5.1,15.27,0,22.51,7.49,10.53,15.06,21,22.55,31.51a19.52,19.52,0,0,0,16.95,8.67c12.73-.05,25.48,0,38.21,0v0c13.29,0,26.56,0,39.85,0,6.74,0,10-3.18,10-9.84Q354.09,345.31,354,329.43Zm-78.53,24.76c-8.85.51-14.2-2.34-18.61-9.76s-10.23-14.29-15.07-21.62c-1-1.46-1.29-4.61-.38-5.89,12.36-17.4,25-34.62,37.55-51.87a9.9,9.9,0,0,1,1.71-1.29c1.46,9.53,2.94,18.64,4.28,27.78,2,14,4,28,5.92,42a33.69,33.69,0,0,1,.33,3.75C291.75,352.6,290.43,353.32,275.45,354.19Zm25.37-72.38c-1.53-8.81-2.64-17.69-4-26.55-.52-3.54.41-5.22,4.46-4.95,5.18.34,10.39.08,15.58.08,5.56,0,11.12-.2,16.66.13,1.17.08,3.16,2.06,3.19,3.21q.39,14,0,27.94c0,1.13-2.07,3.12-3.22,3.15q-14.5.4-29,0C303.19,284.82,301,283.05,300.82,281.81ZM323.91,354H320.7L307,353.18c.38-4.43.52-8.92,1.27-13.29.22-1.26,2.15-3.12,3.35-3.18,7.31-.3,14.65-.29,21.95,0,1.15,0,3.09,2,3.19,3.21C337.89,353.93,337.82,353.93,323.91,354Z"/><path class="cls-1" d="M275.45,354.19c-8.85.51-14.2-2.34-18.61-9.76s-10.23-14.29-15.07-21.62c-1-1.46-1.29-4.61-.38-5.89,12.36-17.4,25-34.62,37.55-51.87a9.9,9.9,0,0,1,1.71-1.29c1.46,9.53,2.94,18.64,4.28,27.78,2,14,4,28,5.92,42a33.69,33.69,0,0,1,.33,3.75C291.75,352.6,290.43,353.32,275.45,354.19Z"/><path class="cls-1" d="M418.61,388.43c12.37,0,24.75,0,37.12,0,7.09,0,10.26,3.1,10.28,10.08.06,16.32.13,32.63,0,49-.12,14-13.32,22.27-25.64,15.83-21.26-11.13-42.27-22.72-63.42-34.06a9.75,9.75,0,0,1-5.61-9.56c.11-6.82,0-13.63,0-20.44,0-7.7,3.07-10.81,10.68-10.82,12.19,0,24.38,0,36.57,0Zm30.32,60.17c0-14-.08-26.88.06-39.76,0-3.17-1.58-3.35-4-3.35-17.55.05-35.09,0-52.64.07-1.25,0-3.11.35-3.64,1.19-1.92,3,.3,9.59,3.56,11.35q16.52,8.92,33.06,17.82Z"/><path class="cls-1" d="M418.71,371c-12.37,0-24.74,0-37.11,0-7.05,0-10.16-3.13-10.2-10.16q-.11-15.6,0-31.2c.05-7.05,3.13-10.15,10.2-10.16q37.11-.09,74.22,0c7.06,0,10.15,3.14,10.19,10.18q.11,15.6,0,31.19c0,7.05-3.13,10.13-10.2,10.16C443.45,371.07,431.08,371,418.71,371Zm-.25-17.1h17.73c13.08,0,12.94,0,12.83-13.25,0-3.37-1-4.23-4.25-4.19-14.51.16-29,.07-43.53.07-13.5,0-13.4,0-12.85,13.84.11,2.86,1,3.63,3.74,3.59C400.9,353.84,409.68,353.93,418.46,353.93Z"/></g></g></g></svg>