<svg xmlns="http://www.w3.org/2000/svg" viewBox="0 0 772.98 377.1"><defs>
</defs><title>Shoulder Pads</title><g id="Layer_2" data-name="Layer 2"><g id="Layer_1-2" data-name="Layer 1"><path class="cls-1" d="M302.43,237c0,4.21,33.82,7.67,77.46,8.17v25.53c-43.64.5-77.46,4-77.46,8.17s33.82,7.67,77.46,8.16V312.6c-43.64.49-77.46,4-77.46,8.16s33.82,7.68,77.46,8.17v44.26a1.37,1.37,0,0,1-1.33,1.4H220.48c-12.43,0-22.51-10.6-22.51-23.68V139a1.37,1.37,0,0,1,1.33-1.4h99.53c20.19,33.6,48.85,56,81.06,59.92v31.35C336.25,229.36,302.43,232.82,302.43,237Z"/><path class="cls-1" d="M264.48,15.37V15H121.67A121.46,121.46,0,0,0,37.15,48.72c-21.63,20.83-35,49.62-35,81.4H295.41C276.1,99.05,264.48,59,264.48,15.37Z"/><path class="cls-1" d="M70.91,211.29H255.59a3.35,3.35,0,0,1,3.35,3.35v19.63a21,21,0,0,1-21,21h-167a3.35,3.35,0,0,1-3.35-3.35V214.64A3.35,3.35,0,0,1,70.91,211.29Z" transform="translate(396.54 70.05) rotate(90)"/><path class="cls-1" d="M230.94,76.3c9.22-5.56,1.34-34.47.81-43-.51-8.08-1.39-16.88-8.56-22.83C215.46,4.1,202.9,3,191.51,2.63c-20-.71-40-.65-60,.17-15.65.65-31.42,1.79-46.29,5.57a113.65,113.65,0,0,0-37.9,17.22c37.92,4.3,73.93,18,101.36,38.42,6,4.47,12,9.45,20.06,11.17a57.19,57.19,0,0,0,12.09.8C189.84,76,224.42,80.22,230.94,76.3Z"/><path class="cls-1" d="M470.55,237.41c0,4.21-33.82,7.67-77.46,8.16v25.54c43.64.49,77.46,3.95,77.46,8.16s-33.82,7.67-77.46,8.17V313c43.64.5,77.46,4,77.46,8.17s-33.82,7.67-77.46,8.16v44.27a1.37,1.37,0,0,0,1.33,1.4H552.5c12.43,0,22.51-10.6,22.51-23.69V139.37a1.37,1.37,0,0,0-1.33-1.4H474.15c-20.19,33.6-48.85,56-81.06,59.93v31.34C436.73,229.74,470.55,233.2,470.55,237.41Z"/><path class="cls-1" d="M477.57,130.5H770.84c0-31.79-13.38-60.57-35-81.41a121.5,121.5,0,0,0-84.52-33.72H508.5v.37C508.5,59.41,496.88,99.43,477.57,130.5Z"/><path class="cls-1" d="M608.76,138h19.63a3.35,3.35,0,0,1,3.35,3.35V326a3.35,3.35,0,0,1-3.35,3.35H591.08a3.35,3.35,0,0,1-3.35-3.35V159a21,21,0,0,1,21-21Z" transform="translate(1219.46 467.34) rotate(180)"/><path class="cls-1" d="M592.19,76.36a57.86,57.86,0,0,0,12.09-.81c8.06-1.72,14.07-6.7,20.06-11.17C651.77,43.91,687.78,30.26,725.7,26A113.85,113.85,0,0,0,687.8,8.74C672.93,5,657.16,3.82,641.51,3.18c-20-.83-40-.89-60-.18-11.39.41-24,1.47-31.68,7.89-7.17,5.95-8,14.74-8.56,22.82-.53,8.49-8.41,37.4.81,43C548.56,80.6,583.13,76.32,592.19,76.36Z"/></g></g></svg>